<?xml version="1.0" standalone="no"?>
<!DOCTYPE svg PUBLIC "-//W3C//DTD SVG 20010904//EN"
 "http://www.w3.org/TR/2001/REC-SVG-20010904/DTD/svg10.dtd">
<svg version="1.0" xmlns="http://www.w3.org/2000/svg"
 width="591.000000pt" height="591.000000pt" viewBox="0 0 591.000000 591.000000"
 preserveAspectRatio="xMidYMid meet">

<g transform="translate(0.000000,591.000000) scale(0.100000,-0.100000)"
fill="#000000" stroke="none">
<path d="M796 5604 c-187 -45 -355 -182 -441 -359 -69 -143 -65 21 -65 -2286
0 -2028 1 -2088 19 -2161 30 -116 81 -208 165 -296 85 -88 167 -141 281 -180
l80 -27 2080 -3 c2343 -3 2168 -8 2335 74 132 66 228 162 294 294 82 167 77
-8 74 2335 l-3 2080 -27 80 c-39 114 -92 196 -180 281 -88 84 -180 135 -296
165 -73 18 -132 19 -2166 18 -1780 -1 -2100 -3 -2150 -15z m1409 -1633 c50
-10 128 -35 174 -55 96 -40 231 -115 231 -128 0 -8 -148 -308 -156 -317 -2 -2
-48 16 -101 41 -174 81 -310 115 -421 105 -126 -12 -190 -43 -229 -112 -28
-49 -31 -131 -7 -181 35 -74 154 -151 364 -234 172 -68 277 -128 356 -203 123
-116 173 -243 174 -437 0 -177 -49 -299 -171 -421 -62 -63 -93 -85 -170 -122
-124 -60 -218 -79 -389 -80 -200 0 -341 30 -527 112 l-88 38 -3 232 -2 232 79
-56 c165 -115 343 -179 501 -179 213 0 325 79 325 231 0 52 -5 68 -31 105 -42
61 -145 127 -281 183 -337 136 -494 257 -564 435 -30 76 -38 275 -15 374 44
187 202 353 401 421 142 49 365 55 550 16z m1165 -296 l0 -305 -113 -112
c-119 -119 -219 -256 -277 -380 -18 -38 -34 -68 -36 -68 -2 0 -4 263 -4 585
l0 585 215 0 215 0 0 -305z m965 -270 l0 -210 -84 -8 c-157 -14 -350 -80 -434
-149 l-28 -23 441 -588 440 -587 -272 2 -273 3 -145 201 c-80 110 -221 305
-314 434 l-169 233 -33 -66 c-71 -141 -94 -284 -94 -604 l0 -203 -216 0 -216
0 5 288 c4 236 9 303 25 377 89 402 335 733 699 941 177 101 451 176 623 170
l45 -1 0 -210z"/>
</g>
</svg>
